<mxfile host="app.diagrams.net" modified="2024-04-06T16:35:17.730Z" agent="Mozilla/5.0 (Windows NT 10.0; Win64; x64) AppleWebKit/537.36 (KHTML, like Gecko) Chrome/123.0.0.0 Safari/537.36" etag="cCaPb-hUblIcri_QCPGh" version="24.2.2" type="google">
  <diagram name="Page-1" id="b_zJH3Sg9wVDs8cVNdYo">
    <mxGraphModel grid="1" page="1" gridSize="10" guides="1" tooltips="1" connect="1" arrows="1" fold="1" pageScale="1" pageWidth="850" pageHeight="1100" math="0" shadow="0">
      <root>
        <mxCell id="0" />
        <mxCell id="1" parent="0" />
        <mxCell id="v-7fdCc3VSDNyAbIxO-M-3" style="rounded=0;orthogonalLoop=1;jettySize=auto;html=1;targetPerimeterSpacing=8;sourcePerimeterSpacing=8;" edge="1" parent="1" source="v-7fdCc3VSDNyAbIxO-M-1" target="v-7fdCc3VSDNyAbIxO-M-2">
          <mxGeometry relative="1" as="geometry" />
        </mxCell>
        <mxCell id="BVloae3xDj17n_l1J_KQ-1" style="edgeStyle=none;shape=connector;rounded=0;orthogonalLoop=1;jettySize=auto;html=1;labelBackgroundColor=default;strokeColor=default;align=center;verticalAlign=middle;fontFamily=Helvetica;fontSize=11;fontColor=default;endArrow=classic;sourcePerimeterSpacing=8;targetPerimeterSpacing=8;" edge="1" parent="1" source="v-7fdCc3VSDNyAbIxO-M-1" target="v-7fdCc3VSDNyAbIxO-M-4">
          <mxGeometry relative="1" as="geometry" />
        </mxCell>
        <mxCell id="BVloae3xDj17n_l1J_KQ-3" style="edgeStyle=none;shape=connector;rounded=0;orthogonalLoop=1;jettySize=auto;html=1;labelBackgroundColor=default;strokeColor=default;align=center;verticalAlign=middle;fontFamily=Helvetica;fontSize=11;fontColor=default;endArrow=classic;sourcePerimeterSpacing=8;targetPerimeterSpacing=8;" edge="1" parent="1" source="v-7fdCc3VSDNyAbIxO-M-1" target="v-7fdCc3VSDNyAbIxO-M-6">
          <mxGeometry relative="1" as="geometry" />
        </mxCell>
        <mxCell id="BVloae3xDj17n_l1J_KQ-4" style="edgeStyle=none;shape=connector;rounded=0;orthogonalLoop=1;jettySize=auto;html=1;labelBackgroundColor=default;strokeColor=default;align=center;verticalAlign=middle;fontFamily=Helvetica;fontSize=11;fontColor=default;endArrow=classic;sourcePerimeterSpacing=8;targetPerimeterSpacing=8;" edge="1" parent="1" source="v-7fdCc3VSDNyAbIxO-M-1" target="_Y4zRGpn23lwM58amZcz-3">
          <mxGeometry relative="1" as="geometry" />
        </mxCell>
        <mxCell id="BVloae3xDj17n_l1J_KQ-5" style="edgeStyle=none;shape=connector;rounded=0;orthogonalLoop=1;jettySize=auto;html=1;labelBackgroundColor=default;strokeColor=default;align=center;verticalAlign=middle;fontFamily=Helvetica;fontSize=11;fontColor=default;endArrow=classic;sourcePerimeterSpacing=8;targetPerimeterSpacing=8;" edge="1" parent="1" source="v-7fdCc3VSDNyAbIxO-M-1" target="_Y4zRGpn23lwM58amZcz-16">
          <mxGeometry relative="1" as="geometry" />
        </mxCell>
        <mxCell id="BVloae3xDj17n_l1J_KQ-8" style="edgeStyle=none;shape=connector;rounded=0;orthogonalLoop=1;jettySize=auto;html=1;labelBackgroundColor=default;strokeColor=default;align=center;verticalAlign=middle;fontFamily=Helvetica;fontSize=11;fontColor=default;endArrow=classic;sourcePerimeterSpacing=8;targetPerimeterSpacing=8;" edge="1" parent="1" source="v-7fdCc3VSDNyAbIxO-M-1" target="BVloae3xDj17n_l1J_KQ-6">
          <mxGeometry relative="1" as="geometry" />
        </mxCell>
        <mxCell id="BVloae3xDj17n_l1J_KQ-22" style="edgeStyle=none;shape=connector;rounded=0;orthogonalLoop=1;jettySize=auto;html=1;labelBackgroundColor=default;strokeColor=default;align=center;verticalAlign=middle;fontFamily=Helvetica;fontSize=11;fontColor=default;endArrow=classic;sourcePerimeterSpacing=8;targetPerimeterSpacing=8;" edge="1" parent="1" source="v-7fdCc3VSDNyAbIxO-M-1" target="_Y4zRGpn23lwM58amZcz-12">
          <mxGeometry relative="1" as="geometry" />
        </mxCell>
        <mxCell id="BVloae3xDj17n_l1J_KQ-24" style="edgeStyle=none;shape=connector;rounded=0;orthogonalLoop=1;jettySize=auto;html=1;labelBackgroundColor=default;strokeColor=default;align=center;verticalAlign=middle;fontFamily=Helvetica;fontSize=11;fontColor=default;endArrow=classic;sourcePerimeterSpacing=8;targetPerimeterSpacing=8;" edge="1" parent="1" source="v-7fdCc3VSDNyAbIxO-M-1" target="BVloae3xDj17n_l1J_KQ-23">
          <mxGeometry relative="1" as="geometry" />
        </mxCell>
        <mxCell id="xHKkMoLyGsw5ubgnT-hc-3" style="edgeStyle=none;rounded=0;orthogonalLoop=1;jettySize=auto;html=1;strokeColor=default;align=center;verticalAlign=middle;fontFamily=Helvetica;fontSize=11;fontColor=default;labelBackgroundColor=default;endArrow=classic;sourcePerimeterSpacing=8;targetPerimeterSpacing=8;" edge="1" parent="1" source="v-7fdCc3VSDNyAbIxO-M-1" target="xHKkMoLyGsw5ubgnT-hc-1">
          <mxGeometry relative="1" as="geometry" />
        </mxCell>
        <mxCell id="xHKkMoLyGsw5ubgnT-hc-5" style="edgeStyle=none;rounded=0;orthogonalLoop=1;jettySize=auto;html=1;strokeColor=default;align=center;verticalAlign=middle;fontFamily=Helvetica;fontSize=11;fontColor=default;labelBackgroundColor=default;endArrow=classic;sourcePerimeterSpacing=8;targetPerimeterSpacing=8;" edge="1" parent="1" source="v-7fdCc3VSDNyAbIxO-M-1" target="xHKkMoLyGsw5ubgnT-hc-4">
          <mxGeometry relative="1" as="geometry" />
        </mxCell>
        <mxCell id="xHKkMoLyGsw5ubgnT-hc-9" style="edgeStyle=none;rounded=0;orthogonalLoop=1;jettySize=auto;html=1;strokeColor=default;align=center;verticalAlign=middle;fontFamily=Helvetica;fontSize=11;fontColor=default;labelBackgroundColor=default;endArrow=classic;sourcePerimeterSpacing=8;targetPerimeterSpacing=8;" edge="1" parent="1" source="v-7fdCc3VSDNyAbIxO-M-1" target="xHKkMoLyGsw5ubgnT-hc-8">
          <mxGeometry relative="1" as="geometry" />
        </mxCell>
        <mxCell id="v-7fdCc3VSDNyAbIxO-M-1" value="Utente" style="shape=umlActor;verticalLabelPosition=bottom;verticalAlign=top;html=1;outlineConnect=0;" vertex="1" parent="1">
          <mxGeometry x="40" y="338" width="30" height="60" as="geometry" />
        </mxCell>
        <mxCell id="v-7fdCc3VSDNyAbIxO-M-2" value="Registrazione" style="ellipse;whiteSpace=wrap;html=1;" vertex="1" parent="1">
          <mxGeometry x="360" y="50" width="120" height="50" as="geometry" />
        </mxCell>
        <mxCell id="v-7fdCc3VSDNyAbIxO-M-4" value="Login" style="ellipse;whiteSpace=wrap;html=1;" vertex="1" parent="1">
          <mxGeometry x="360" y="120" width="120" height="50" as="geometry" />
        </mxCell>
        <mxCell id="v-7fdCc3VSDNyAbIxO-M-6" value="Visualizzazione asta" style="ellipse;whiteSpace=wrap;html=1;" vertex="1" parent="1">
          <mxGeometry x="360" y="528" width="120" height="50" as="geometry" />
        </mxCell>
        <mxCell id="_Y4zRGpn23lwM58amZcz-3" value="Effettuare un &lt;br&gt;offerta" style="ellipse;whiteSpace=wrap;html=1;" vertex="1" parent="1">
          <mxGeometry x="360" y="593" width="120" height="50" as="geometry" />
        </mxCell>
        <mxCell id="BVloae3xDj17n_l1J_KQ-33" style="edgeStyle=none;shape=connector;rounded=0;orthogonalLoop=1;jettySize=auto;html=1;labelBackgroundColor=default;strokeColor=default;align=center;verticalAlign=middle;fontFamily=Helvetica;fontSize=11;fontColor=default;endArrow=classic;sourcePerimeterSpacing=8;targetPerimeterSpacing=8;" edge="1" parent="1" source="_Y4zRGpn23lwM58amZcz-12" target="_Y4zRGpn23lwM58amZcz-15">
          <mxGeometry relative="1" as="geometry" />
        </mxCell>
        <mxCell id="BVloae3xDj17n_l1J_KQ-34" value="&amp;lt;&amp;lt;includes&amp;gt;&amp;gt;" style="edgeLabel;html=1;align=center;verticalAlign=middle;resizable=0;points=[];fontSize=11;fontFamily=Helvetica;fontColor=default;" connectable="0" vertex="1" parent="BVloae3xDj17n_l1J_KQ-33">
          <mxGeometry x="-0.1741" y="-3" relative="1" as="geometry">
            <mxPoint as="offset" />
          </mxGeometry>
        </mxCell>
        <mxCell id="_Y4zRGpn23lwM58amZcz-12" value="Ricerca articoli" style="ellipse;whiteSpace=wrap;html=1;" vertex="1" parent="1">
          <mxGeometry x="360" y="390" width="120" height="50" as="geometry" />
        </mxCell>
        <mxCell id="_Y4zRGpn23lwM58amZcz-15" value="Filtro&lt;br&gt;risultati" style="ellipse;whiteSpace=wrap;html=1;" vertex="1" parent="1">
          <mxGeometry x="610" y="430" width="120" height="50" as="geometry" />
        </mxCell>
        <mxCell id="_Y4zRGpn23lwM58amZcz-16" value="Creazione&lt;br&gt;asta" style="ellipse;whiteSpace=wrap;html=1;" vertex="1" parent="1">
          <mxGeometry x="360" y="655" width="120" height="50" as="geometry" />
        </mxCell>
        <mxCell id="V8iu3NMJcIfSDHMfTlM--2" value="" style="endArrow=classic;html=1;rounded=0;exitX=1;exitY=0.5;exitDx=0;exitDy=0;entryX=0;entryY=0.5;entryDx=0;entryDy=0;" edge="1" parent="1" source="_Y4zRGpn23lwM58amZcz-3" target="V8iu3NMJcIfSDHMfTlM--4">
          <mxGeometry width="50" height="50" relative="1" as="geometry">
            <mxPoint x="645" y="550" as="sourcePoint" />
            <mxPoint x="665" y="545" as="targetPoint" />
          </mxGeometry>
        </mxCell>
        <mxCell id="V8iu3NMJcIfSDHMfTlM--3" value="&amp;lt;&amp;lt;extends&amp;gt;&amp;gt;" style="edgeLabel;html=1;align=center;verticalAlign=middle;resizable=0;points=[];" vertex="1" connectable="0" parent="V8iu3NMJcIfSDHMfTlM--2">
          <mxGeometry x="-0.0486" relative="1" as="geometry">
            <mxPoint as="offset" />
          </mxGeometry>
        </mxCell>
        <mxCell id="V8iu3NMJcIfSDHMfTlM--4" value="Offerta&lt;br&gt;Automatica" style="ellipse;whiteSpace=wrap;html=1;" vertex="1" parent="1">
          <mxGeometry x="600" y="593" width="120" height="50" as="geometry" />
        </mxCell>
        <mxCell id="9Fo_kt0ZILC8bcLMkkAb-26" style="edgeStyle=none;rounded=0;orthogonalLoop=1;jettySize=auto;html=1;strokeColor=default;align=center;verticalAlign=middle;fontFamily=Helvetica;fontSize=11;fontColor=default;labelBackgroundColor=default;endArrow=classic;sourcePerimeterSpacing=8;targetPerimeterSpacing=8;" edge="1" parent="1" source="BVloae3xDj17n_l1J_KQ-6" target="_Y4zRGpn23lwM58amZcz-15">
          <mxGeometry relative="1" as="geometry" />
        </mxCell>
        <mxCell id="BVloae3xDj17n_l1J_KQ-36" value="&amp;lt;&amp;lt;includes&amp;gt;&amp;gt;" style="edgeLabel;html=1;align=center;verticalAlign=middle;resizable=0;points=[];fontSize=11;fontFamily=Helvetica;fontColor=default;" connectable="0" vertex="1" parent="9Fo_kt0ZILC8bcLMkkAb-26">
          <mxGeometry x="0.0415" relative="1" as="geometry">
            <mxPoint as="offset" />
          </mxGeometry>
        </mxCell>
        <mxCell id="BVloae3xDj17n_l1J_KQ-6" value="Monitoraggio Vendite" style="ellipse;whiteSpace=wrap;html=1;" vertex="1" parent="1">
          <mxGeometry x="360" y="460" width="120" height="50" as="geometry" />
        </mxCell>
        <mxCell id="9Fo_kt0ZILC8bcLMkkAb-8" value="Monitoraggio Vendite" style="ellipse;whiteSpace=wrap;html=1;" vertex="1" parent="1">
          <mxGeometry x="360" y="880" width="120" height="50" as="geometry" />
        </mxCell>
        <mxCell id="9Fo_kt0ZILC8bcLMkkAb-25" style="edgeStyle=none;rounded=0;orthogonalLoop=1;jettySize=auto;html=1;strokeColor=default;align=center;verticalAlign=middle;fontFamily=Helvetica;fontSize=11;fontColor=default;labelBackgroundColor=default;endArrow=classic;sourcePerimeterSpacing=8;targetPerimeterSpacing=8;" edge="1" parent="1" source="9Fo_kt0ZILC8bcLMkkAb-9" target="9Fo_kt0ZILC8bcLMkkAb-8">
          <mxGeometry relative="1" as="geometry" />
        </mxCell>
        <mxCell id="9Fo_kt0ZILC8bcLMkkAb-9" value="Visualizzare aste&lt;br&gt;concluse" style="ellipse;whiteSpace=wrap;html=1;" vertex="1" parent="1">
          <mxGeometry x="360" y="1010" width="120" height="50" as="geometry" />
        </mxCell>
        <mxCell id="9Fo_kt0ZILC8bcLMkkAb-24" style="edgeStyle=none;rounded=0;orthogonalLoop=1;jettySize=auto;html=1;strokeColor=default;align=center;verticalAlign=middle;fontFamily=Helvetica;fontSize=11;fontColor=default;labelBackgroundColor=default;endArrow=classic;sourcePerimeterSpacing=8;targetPerimeterSpacing=8;" edge="1" parent="1" source="V8iu3NMJcIfSDHMfTlM--5" target="9Fo_kt0ZILC8bcLMkkAb-8">
          <mxGeometry relative="1" as="geometry" />
        </mxCell>
        <mxCell id="V8iu3NMJcIfSDHMfTlM--5" value="Visualizzare aste&lt;br&gt;in corso" style="ellipse;whiteSpace=wrap;html=1;" vertex="1" parent="1">
          <mxGeometry x="495" y="1010" width="120" height="50" as="geometry" />
        </mxCell>
        <mxCell id="9Fo_kt0ZILC8bcLMkkAb-23" style="edgeStyle=none;rounded=0;orthogonalLoop=1;jettySize=auto;html=1;strokeColor=default;align=center;verticalAlign=middle;fontFamily=Helvetica;fontSize=11;fontColor=default;labelBackgroundColor=default;endArrow=classic;sourcePerimeterSpacing=8;targetPerimeterSpacing=8;" edge="1" parent="1" source="9Fo_kt0ZILC8bcLMkkAb-10" target="9Fo_kt0ZILC8bcLMkkAb-8">
          <mxGeometry relative="1" as="geometry" />
        </mxCell>
        <mxCell id="9Fo_kt0ZILC8bcLMkkAb-10" value="Visualizzare saldo" style="ellipse;whiteSpace=wrap;html=1;" vertex="1" parent="1">
          <mxGeometry x="235" y="1010" width="120" height="50" as="geometry" />
        </mxCell>
        <mxCell id="BVloae3xDj17n_l1J_KQ-23" value="Modifica asta" style="ellipse;whiteSpace=wrap;html=1;" vertex="1" parent="1">
          <mxGeometry x="360" y="723" width="120" height="50" as="geometry" />
        </mxCell>
        <mxCell id="xHKkMoLyGsw5ubgnT-hc-1" value="Visualizza profilo" style="ellipse;whiteSpace=wrap;html=1;" vertex="1" parent="1">
          <mxGeometry x="360" y="190" width="120" height="50" as="geometry" />
        </mxCell>
        <mxCell id="xHKkMoLyGsw5ubgnT-hc-4" value="Modifica profilo" style="ellipse;whiteSpace=wrap;html=1;" vertex="1" parent="1">
          <mxGeometry x="360" y="260" width="120" height="50" as="geometry" />
        </mxCell>
        <mxCell id="xHKkMoLyGsw5ubgnT-hc-8" value="Visualizza profilo venditore" style="ellipse;whiteSpace=wrap;html=1;" vertex="1" parent="1">
          <mxGeometry x="360" y="330" width="120" height="50" as="geometry" />
        </mxCell>
      </root>
    </mxGraphModel>
  </diagram>
</mxfile>
